<svg xmlns="http://www.w3.org/2000/svg" viewBox="0 0 512 512">
  <defs><clipPath id="c"><circle cx="256" cy="256" r="168"/></clipPath></defs>
  <rect width="512" height="512" fill="#F5F5F5"/>
  <circle cx="256" cy="256" r="168" fill="#ff7a29"/>
  <g clip-path="url(#c)"><circle cx="198.5" cy="174.1" r="9.3" fill="#ff7a29" opacity="0.29"/><circle cx="195.1" cy="123.7" r="8.4" fill="#c24405" opacity="0.37"/><circle cx="291.2" cy="167.7" r="9.2" fill="#c24405" opacity="0.41"/><circle cx="243.1" cy="241.2" r="10.1" fill="#ff9f5e" opacity="0.47"/><circle cx="282.0" cy="135.8" r="5.5" fill="#ffc199" opacity="0.37"/><circle cx="142.6" cy="224.7" r="5.6" fill="#e85c10" opacity="0.42"/><circle cx="192.3" cy="274.0" r="3.6" fill="#e85c10" opacity="0.45"/><circle cx="303.7" cy="188.2" r="4.1" fill="#c24405" opacity="0.40"/><circle cx="171.0" cy="253.5" r="5.5" fill="#c24405" opacity="0.31"/><circle cx="239.8" cy="295.4" r="4.6" fill="#ffc199" opacity="0.27"/><circle cx="366.8" cy="179.3" r="9.5" fill="#fff0e6" opacity="0.33"/><circle cx="341.2" cy="271.0" r="4.2" fill="#c24405" opacity="0.18"/><circle cx="214.0" cy="292.1" r="9.8" fill="#ff7a29" opacity="0.33"/><circle cx="190.4" cy="189.3" r="3.6" fill="#c24405" opacity="0.33"/><circle cx="339.5" cy="358.9" r="3.8" fill="#fff0e6" opacity="0.27"/><circle cx="206.5" cy="373.2" r="9.9" fill="#ff7a29" opacity="0.45"/><circle cx="394.3" cy="243.7" r="10.2" fill="#ff7a29" opacity="0.38"/><circle cx="348.2" cy="389.0" r="7.8" fill="#ffe0cc" opacity="0.26"/><circle cx="178.9" cy="136.4" r="6.9" fill="#ffc199" opacity="0.39"/><circle cx="287.8" cy="403.3" r="10.4" fill="#ffe0cc" opacity="0.17"/><circle cx="168.5" cy="299.9" r="9.4" fill="#e85c10" opacity="0.33"/><circle cx="157.5" cy="209.6" r="6.7" fill="#ffc199" opacity="0.45"/><circle cx="370.8" cy="326.6" r="7.5" fill="#ff9f5e" opacity="0.25"/><circle cx="265.9" cy="238.2" r="9.6" fill="#e85c10" opacity="0.32"/><circle cx="324.7" cy="345.1" r="5.2" fill="#c24405" opacity="0.33"/><circle cx="159.2" cy="291.2" r="6.7" fill="#ffc199" opacity="0.32"/><circle cx="273.1" cy="360.2" r="10.1" fill="#e85c10" opacity="0.47"/><circle cx="136.9" cy="236.1" r="8.4" fill="#ff7a29" opacity="0.44"/><circle cx="120.6" cy="237.1" r="4.0" fill="#e85c10" opacity="0.29"/><circle cx="319.2" cy="191.4" r="8.0" fill="#ffc199" opacity="0.44"/><circle cx="333.0" cy="280.8" r="10.4" fill="#c24405" opacity="0.30"/><circle cx="186.8" cy="307.8" r="7.0" fill="#fff0e6" opacity="0.39"/><circle cx="184.2" cy="123.9" r="8.4" fill="#ff9f5e" opacity="0.46"/><circle cx="324.4" cy="329.4" r="5.0" fill="#ff9f5e" opacity="0.31"/><circle cx="170.2" cy="245.0" r="7.2" fill="#ffc199" opacity="0.23"/><circle cx="180.3" cy="136.7" r="4.0" fill="#e85c10" opacity="0.24"/><circle cx="290.9" cy="349.1" r="9.2" fill="#ffc199" opacity="0.18"/><circle cx="302.3" cy="173.9" r="10.2" fill="#ffe0cc" opacity="0.29"/><circle cx="111.2" cy="236.3" r="9.7" fill="#ffc199" opacity="0.19"/><circle cx="319.3" cy="367.7" r="8.6" fill="#ffc199" opacity="0.21"/><circle cx="142.6" cy="370.8" r="5.5" fill="#ffc199" opacity="0.21"/><circle cx="292.7" cy="371.1" r="5.5" fill="#e85c10" opacity="0.33"/><circle cx="191.7" cy="227.8" r="4.5" fill="#ffe0cc" opacity="0.49"/><circle cx="138.2" cy="350.4" r="3.6" fill="#ff7a29" opacity="0.28"/><circle cx="324.4" cy="380.2" r="7.5" fill="#c24405" opacity="0.42"/><circle cx="163.3" cy="377.1" r="3.9" fill="#fff0e6" opacity="0.44"/><circle cx="284.3" cy="376.2" r="8.8" fill="#c24405" opacity="0.23"/><circle cx="296.8" cy="147.5" r="5.9" fill="#fff0e6" opacity="0.20"/><circle cx="334.5" cy="245.9" r="6.3" fill="#e85c10" opacity="0.26"/><circle cx="153.2" cy="141.8" r="7.8" fill="#c24405" opacity="0.37"/><circle cx="127.0" cy="336.2" r="10.4" fill="#fff0e6" opacity="0.22"/><circle cx="374.6" cy="155.7" r="8.8" fill="#c24405" opacity="0.44"/><circle cx="195.8" cy="110.8" r="4.7" fill="#ff7a29" opacity="0.45"/><circle cx="223.6" cy="288.9" r="4.1" fill="#e85c10" opacity="0.19"/><circle cx="408.5" cy="218.0" r="7.9" fill="#ffc199" opacity="0.43"/><circle cx="116.7" cy="212.4" r="6.9" fill="#c24405" opacity="0.24"/><circle cx="279.5" cy="239.4" r="4.6" fill="#ffc199" opacity="0.48"/><circle cx="220.5" cy="199.6" r="8.7" fill="#ff9f5e" opacity="0.30"/><circle cx="405.4" cy="290.1" r="6.3" fill="#ff9f5e" opacity="0.45"/><circle cx="237.5" cy="193.9" r="9.8" fill="#ff9f5e" opacity="0.46"/><circle cx="138.3" cy="267.4" r="9.0" fill="#ffe0cc" opacity="0.44"/><circle cx="358.3" cy="319.5" r="7.9" fill="#c24405" opacity="0.41"/><circle cx="112.8" cy="309.6" r="6.6" fill="#ffe0cc" opacity="0.40"/><circle cx="165.8" cy="250.9" r="7.2" fill="#fff0e6" opacity="0.49"/><circle cx="245.4" cy="171.2" r="9.2" fill="#fff0e6" opacity="0.17"/><circle cx="132.8" cy="301.4" r="8.7" fill="#ff7a29" opacity="0.48"/><circle cx="185.8" cy="337.9" r="9.6" fill="#c24405" opacity="0.20"/><circle cx="268.5" cy="408.6" r="9.7" fill="#fff0e6" opacity="0.42"/><circle cx="305.2" cy="351.1" r="8.0" fill="#fff0e6" opacity="0.44"/><circle cx="322.5" cy="110.3" r="7.6" fill="#fff0e6" opacity="0.26"/><circle cx="249.0" cy="129.3" r="8.7" fill="#e85c10" opacity="0.16"/><circle cx="244.5" cy="134.7" r="6.3" fill="#c24405" opacity="0.44"/><circle cx="339.1" cy="190.5" r="3.8" fill="#ffe0cc" opacity="0.40"/><circle cx="270.1" cy="353.4" r="9.8" fill="#ff7a29" opacity="0.40"/><circle cx="141.5" cy="333.7" r="4.1" fill="#ffe0cc" opacity="0.38"/><circle cx="199.3" cy="126.8" r="9.8" fill="#e85c10" opacity="0.35"/><circle cx="307.8" cy="335.3" r="5.3" fill="#c24405" opacity="0.32"/><circle cx="199.4" cy="112.0" r="6.8" fill="#ff9f5e" opacity="0.20"/><circle cx="272.5" cy="358.9" r="3.7" fill="#ff9f5e" opacity="0.44"/><circle cx="232.7" cy="318.6" r="3.6" fill="#ff9f5e" opacity="0.36"/><circle cx="212.1" cy="251.3" r="3.7" fill="#ff7a29" opacity="0.20"/><circle cx="178.2" cy="265.1" r="6.5" fill="#fff0e6" opacity="0.45"/><circle cx="210.5" cy="228.9" r="7.1" fill="#c24405" opacity="0.42"/><circle cx="187.5" cy="357.2" r="7.8" fill="#e85c10" opacity="0.43"/><circle cx="393.2" cy="318.2" r="5.4" fill="#c24405" opacity="0.29"/><circle cx="342.1" cy="376.3" r="5.7" fill="#c24405" opacity="0.35"/><circle cx="269.1" cy="212.7" r="10.4" fill="#e85c10" opacity="0.17"/><circle cx="221.6" cy="329.1" r="8.4" fill="#fff0e6" opacity="0.48"/><circle cx="217.3" cy="173.8" r="4.2" fill="#fff0e6" opacity="0.35"/><circle cx="118.5" cy="210.9" r="8.1" fill="#fff0e6" opacity="0.30"/><circle cx="217.3" cy="222.9" r="10.0" fill="#fff0e6" opacity="0.35"/><circle cx="281.1" cy="187.2" r="5.8" fill="#ffe0cc" opacity="0.26"/><circle cx="207.8" cy="149.3" r="4.3" fill="#ffc199" opacity="0.22"/><circle cx="155.0" cy="143.3" r="4.1" fill="#ff9f5e" opacity="0.45"/><circle cx="146.4" cy="205.8" r="4.4" fill="#ff9f5e" opacity="0.34"/><circle cx="157.2" cy="346.7" r="8.2" fill="#ff9f5e" opacity="0.32"/><circle cx="290.1" cy="126.5" r="10.4" fill="#c24405" opacity="0.23"/><circle cx="260.2" cy="223.0" r="9.8" fill="#c24405" opacity="0.45"/><circle cx="280.2" cy="178.9" r="10.0" fill="#e85c10" opacity="0.33"/><circle cx="333.5" cy="311.3" r="3.8" fill="#c24405" opacity="0.17"/><circle cx="160.5" cy="371.8" r="9.4" fill="#ffc199" opacity="0.47"/><circle cx="195.7" cy="334.5" r="6.2" fill="#ff7a29" opacity="0.32"/><circle cx="233.9" cy="309.5" r="8.6" fill="#ffe0cc" opacity="0.34"/><circle cx="235.5" cy="113.3" r="3.7" fill="#fff0e6" opacity="0.32"/><circle cx="359.9" cy="262.5" r="9.4" fill="#e85c10" opacity="0.25"/><circle cx="152.3" cy="379.7" r="8.8" fill="#fff0e6" opacity="0.28"/><circle cx="141.2" cy="369.8" r="8.2" fill="#ffe0cc" opacity="0.39"/><circle cx="152.9" cy="349.0" r="4.7" fill="#e85c10" opacity="0.35"/><circle cx="246.0" cy="216.8" r="7.5" fill="#ff7a29" opacity="0.26"/><circle cx="210.9" cy="379.4" r="6.2" fill="#ff7a29" opacity="0.44"/><circle cx="274.5" cy="205.6" r="8.3" fill="#fff0e6" opacity="0.17"/><circle cx="297.2" cy="104.9" r="7.6" fill="#c24405" opacity="0.17"/><circle cx="187.2" cy="253.8" r="8.8" fill="#ff7a29" opacity="0.22"/><circle cx="178.9" cy="146.4" r="10.3" fill="#e85c10" opacity="0.17"/><circle cx="183.7" cy="325.6" r="6.0" fill="#ffe0cc" opacity="0.30"/><circle cx="233.0" cy="335.3" r="6.8" fill="#c24405" opacity="0.19"/><circle cx="341.6" cy="342.5" r="10.3" fill="#ff9f5e" opacity="0.43"/><circle cx="134.0" cy="315.9" r="4.8" fill="#fff0e6" opacity="0.36"/><circle cx="401.7" cy="305.1" r="5.8" fill="#e85c10" opacity="0.46"/><circle cx="213.7" cy="382.7" r="6.4" fill="#c24405" opacity="0.23"/><circle cx="172.2" cy="271.0" r="8.4" fill="#fff0e6" opacity="0.18"/><circle cx="247.5" cy="294.9" r="4.5" fill="#ff7a29" opacity="0.45"/><circle cx="186.6" cy="291.6" r="4.2" fill="#c24405" opacity="0.32"/><circle cx="210.2" cy="248.8" r="10.5" fill="#ff7a29" opacity="0.32"/><circle cx="111.1" cy="213.2" r="9.1" fill="#ff9f5e" opacity="0.48"/><circle cx="107.1" cy="269.2" r="5.4" fill="#ffe0cc" opacity="0.48"/><circle cx="216.7" cy="389.8" r="8.5" fill="#ffe0cc" opacity="0.26"/><circle cx="191.4" cy="127.6" r="4.9" fill="#ffc199" opacity="0.42"/><circle cx="299.6" cy="366.6" r="7.2" fill="#ffc199" opacity="0.29"/><circle cx="390.4" cy="314.7" r="8.9" fill="#e85c10" opacity="0.17"/><circle cx="172.1" cy="290.5" r="6.1" fill="#ffe0cc" opacity="0.26"/><circle cx="176.9" cy="132.6" r="5.6" fill="#e85c10" opacity="0.26"/><circle cx="189.5" cy="192.1" r="4.9" fill="#c24405" opacity="0.31"/><circle cx="384.3" cy="187.7" r="6.4" fill="#ff9f5e" opacity="0.49"/><circle cx="373.5" cy="282.8" r="4.9" fill="#e85c10" opacity="0.19"/><circle cx="214.2" cy="207.9" r="4.7" fill="#fff0e6" opacity="0.41"/><circle cx="116.2" cy="233.3" r="3.8" fill="#ff9f5e" opacity="0.21"/><circle cx="315.9" cy="312.6" r="4.7" fill="#ffe0cc" opacity="0.43"/><circle cx="283.4" cy="148.3" r="5.3" fill="#c24405" opacity="0.28"/><circle cx="129.0" cy="249.0" r="4.1" fill="#e85c10" opacity="0.20"/><circle cx="203.2" cy="157.3" r="9.6" fill="#ffc199" opacity="0.43"/><circle cx="232.7" cy="380.2" r="3.6" fill="#c24405" opacity="0.22"/><circle cx="354.2" cy="271.9" r="10.5" fill="#ffc199" opacity="0.25"/><circle cx="405.8" cy="309.2" r="7.1" fill="#ff7a29" opacity="0.39"/><circle cx="327.1" cy="264.1" r="7.6" fill="#c24405" opacity="0.28"/><circle cx="220.7" cy="262.9" r="5.8" fill="#ffe0cc" opacity="0.44"/><circle cx="176.3" cy="189.6" r="7.1" fill="#ff7a29" opacity="0.32"/><circle cx="294.3" cy="259.4" r="8.6" fill="#fff0e6" opacity="0.43"/><circle cx="231.7" cy="295.9" r="9.9" fill="#e85c10" opacity="0.43"/><circle cx="394.9" cy="211.3" r="9.2" fill="#ffc199" opacity="0.26"/><circle cx="125.8" cy="183.3" r="8.1" fill="#ffc199" opacity="0.23"/><circle cx="239.8" cy="237.9" r="9.6" fill="#ff9f5e" opacity="0.21"/><circle cx="248.9" cy="408.6" r="4.1" fill="#ffe0cc" opacity="0.21"/><circle cx="284.0" cy="138.4" r="7.8" fill="#e85c10" opacity="0.33"/><circle cx="207.5" cy="233.6" r="5.9" fill="#fff0e6" opacity="0.23"/><circle cx="266.5" cy="150.9" r="4.8" fill="#fff0e6" opacity="0.33"/><circle cx="338.8" cy="344.5" r="4.1" fill="#ff9f5e" opacity="0.31"/><circle cx="327.3" cy="314.5" r="4.4" fill="#ff9f5e" opacity="0.21"/><circle cx="316.5" cy="268.8" r="8.3" fill="#e85c10" opacity="0.29"/><circle cx="312.6" cy="151.5" r="9.4" fill="#ff7a29" opacity="0.24"/><circle cx="190.4" cy="172.9" r="8.3" fill="#ffe0cc" opacity="0.41"/><circle cx="199.0" cy="135.0" r="9.0" fill="#ff7a29" opacity="0.33"/><circle cx="151.4" cy="154.9" r="5.6" fill="#ff9f5e" opacity="0.48"/><circle cx="209.2" cy="176.7" r="8.9" fill="#ffe0cc" opacity="0.38"/><circle cx="159.2" cy="378.9" r="6.0" fill="#c24405" opacity="0.39"/><circle cx="286.6" cy="239.8" r="8.1" fill="#c24405" opacity="0.20"/><circle cx="185.8" cy="237.5" r="8.9" fill="#ff9f5e" opacity="0.18"/><circle cx="300.9" cy="187.4" r="8.2" fill="#ffe0cc" opacity="0.20"/><circle cx="297.4" cy="376.5" r="5.7" fill="#ffe0cc" opacity="0.17"/><circle cx="141.1" cy="265.4" r="7.3" fill="#ffe0cc" opacity="0.35"/><circle cx="287.4" cy="238.9" r="3.6" fill="#e85c10" opacity="0.26"/><circle cx="401.2" cy="283.0" r="9.8" fill="#e85c10" opacity="0.39"/><circle cx="106.1" cy="293.2" r="4.0" fill="#e85c10" opacity="0.23"/><circle cx="164.9" cy="279.2" r="7.7" fill="#e85c10" opacity="0.46"/><circle cx="235.1" cy="198.7" r="8.7" fill="#ffc199" opacity="0.37"/><circle cx="172.6" cy="335.3" r="8.4" fill="#c24405" opacity="0.35"/><circle cx="261.5" cy="261.9" r="6.3" fill="#e85c10" opacity="0.26"/><circle cx="328.5" cy="327.7" r="7.9" fill="#ff7a29" opacity="0.44"/><circle cx="177.9" cy="246.0" r="5.4" fill="#e85c10" opacity="0.39"/><circle cx="145.5" cy="174.9" r="9.7" fill="#ff9f5e" opacity="0.31"/><circle cx="208.2" cy="251.2" r="8.1" fill="#fff0e6" opacity="0.24"/><circle cx="313.9" cy="244.5" r="10.1" fill="#fff0e6" opacity="0.20"/><circle cx="213.1" cy="220.4" r="9.7" fill="#ff7a29" opacity="0.23"/><circle cx="200.8" cy="239.3" r="8.2" fill="#fff0e6" opacity="0.35"/><circle cx="198.1" cy="282.4" r="8.3" fill="#ff9f5e" opacity="0.26"/><circle cx="335.8" cy="169.6" r="5.8" fill="#ffc199" opacity="0.19"/><circle cx="142.5" cy="169.6" r="4.0" fill="#ffe0cc" opacity="0.30"/><circle cx="293.1" cy="301.0" r="8.4" fill="#fff0e6" opacity="0.41"/><circle cx="273.0" cy="165.6" r="4.2" fill="#fff0e6" opacity="0.30"/><circle cx="226.0" cy="162.1" r="4.8" fill="#fff0e6" opacity="0.49"/><circle cx="333.6" cy="191.8" r="9.2" fill="#c24405" opacity="0.30"/><circle cx="184.7" cy="324.9" r="4.3" fill="#ff9f5e" opacity="0.41"/><circle cx="184.8" cy="397.9" r="8.0" fill="#ffe0cc" opacity="0.34"/><circle cx="130.9" cy="358.7" r="10.3" fill="#ffe0cc" opacity="0.47"/><circle cx="347.5" cy="157.7" r="7.2" fill="#ffc199" opacity="0.38"/><circle cx="123.2" cy="300.7" r="7.9" fill="#c24405" opacity="0.43"/><circle cx="207.4" cy="188.5" r="5.2" fill="#ffe0cc" opacity="0.37"/><circle cx="324.6" cy="371.7" r="8.6" fill="#ffc199" opacity="0.41"/><circle cx="177.5" cy="388.5" r="7.1" fill="#e85c10" opacity="0.36"/><circle cx="132.6" cy="188.0" r="8.2" fill="#ff9f5e" opacity="0.34"/><circle cx="186.0" cy="163.7" r="5.0" fill="#e85c10" opacity="0.46"/><circle cx="407.7" cy="258.8" r="10.4" fill="#ffe0cc" opacity="0.45"/><circle cx="128.3" cy="234.8" r="7.7" fill="#ff9f5e" opacity="0.40"/><circle cx="203.2" cy="103.8" r="7.0" fill="#ffe0cc" opacity="0.23"/><circle cx="211.7" cy="196.2" r="4.7" fill="#ffe0cc" opacity="0.46"/><circle cx="219.3" cy="385.2" r="8.5" fill="#ff9f5e" opacity="0.27"/><circle cx="148.8" cy="332.4" r="8.2" fill="#ff7a29" opacity="0.29"/><circle cx="215.0" cy="313.8" r="8.6" fill="#e85c10" opacity="0.30"/><circle cx="291.8" cy="377.1" r="8.5" fill="#ff7a29" opacity="0.23"/><circle cx="198.7" cy="397.4" r="8.2" fill="#c24405" opacity="0.37"/><circle cx="265.6" cy="331.4" r="6.8" fill="#ff7a29" opacity="0.22"/><circle cx="293.4" cy="388.8" r="7.9" fill="#ff9f5e" opacity="0.39"/><circle cx="159.7" cy="169.6" r="6.8" fill="#c24405" opacity="0.25"/><circle cx="189.7" cy="390.3" r="10.3" fill="#ff7a29" opacity="0.45"/><circle cx="336.0" cy="304.2" r="10.2" fill="#ff9f5e" opacity="0.43"/><circle cx="237.6" cy="374.2" r="3.6" fill="#e85c10" opacity="0.50"/><circle cx="351.3" cy="380.5" r="3.9" fill="#c24405" opacity="0.24"/><circle cx="319.1" cy="365.9" r="6.8" fill="#fff0e6" opacity="0.30"/><circle cx="170.5" cy="127.8" r="7.1" fill="#ffe0cc" opacity="0.47"/><circle cx="295.8" cy="305.0" r="7.8" fill="#ff7a29" opacity="0.28"/><circle cx="224.7" cy="279.2" r="9.5" fill="#fff0e6" opacity="0.45"/><circle cx="342.5" cy="275.9" r="8.7" fill="#fff0e6" opacity="0.33"/><circle cx="108.4" cy="217.2" r="4.1" fill="#ff7a29" opacity="0.21"/><circle cx="300.2" cy="317.8" r="8.8" fill="#ffc199" opacity="0.43"/><circle cx="292.0" cy="212.8" r="7.9" fill="#ffc199" opacity="0.20"/><circle cx="333.8" cy="354.6" r="9.9" fill="#ffc199" opacity="0.25"/><circle cx="341.6" cy="356.8" r="5.7" fill="#ffe0cc" opacity="0.36"/><circle cx="346.2" cy="129.8" r="4.3" fill="#e85c10" opacity="0.32"/><circle cx="214.1" cy="134.3" r="6.0" fill="#ff9f5e" opacity="0.40"/><circle cx="137.4" cy="190.3" r="6.3" fill="#fff0e6" opacity="0.18"/><circle cx="169.6" cy="234.2" r="6.5" fill="#ffe0cc" opacity="0.36"/><circle cx="356.5" cy="353.6" r="8.2" fill="#ffe0cc" opacity="0.30"/><circle cx="152.4" cy="235.7" r="9.8" fill="#ffc199" opacity="0.27"/><circle cx="322.4" cy="206.2" r="3.6" fill="#fff0e6" opacity="0.32"/><circle cx="320.9" cy="360.0" r="9.6" fill="#e85c10" opacity="0.44"/><circle cx="311.3" cy="249.3" r="7.2" fill="#e85c10" opacity="0.16"/><circle cx="240.9" cy="144.4" r="7.1" fill="#e85c10" opacity="0.31"/><circle cx="360.3" cy="239.8" r="3.7" fill="#c24405" opacity="0.37"/><circle cx="159.1" cy="152.0" r="9.0" fill="#c24405" opacity="0.18"/><circle cx="370.8" cy="181.1" r="10.4" fill="#ff9f5e" opacity="0.21"/><circle cx="176.2" cy="344.0" r="4.5" fill="#ff9f5e" opacity="0.28"/><circle cx="310.0" cy="227.9" r="7.9" fill="#e85c10" opacity="0.38"/><circle cx="265.3" cy="217.8" r="7.4" fill="#fff0e6" opacity="0.41"/><circle cx="317.4" cy="222.9" r="6.3" fill="#ffe0cc" opacity="0.36"/><circle cx="355.6" cy="177.9" r="8.9" fill="#ffc199" opacity="0.27"/><circle cx="191.4" cy="197.0" r="10.5" fill="#ffc199" opacity="0.24"/><circle cx="301.5" cy="119.8" r="6.8" fill="#e85c10" opacity="0.48"/><circle cx="381.6" cy="347.4" r="5.1" fill="#ff9f5e" opacity="0.21"/><circle cx="355.6" cy="280.0" r="10.3" fill="#ffe0cc" opacity="0.18"/><circle cx="303.3" cy="120.6" r="6.5" fill="#e85c10" opacity="0.41"/><circle cx="321.1" cy="163.5" r="6.3" fill="#c24405" opacity="0.43"/><circle cx="356.6" cy="191.5" r="8.8" fill="#ffe0cc" opacity="0.38"/><circle cx="240.2" cy="138.2" r="7.6" fill="#fff0e6" opacity="0.46"/><circle cx="373.7" cy="303.6" r="8.3" fill="#ff9f5e" opacity="0.17"/><circle cx="276.5" cy="132.3" r="4.3" fill="#fff0e6" opacity="0.35"/><circle cx="399.6" cy="290.9" r="5.9" fill="#c24405" opacity="0.20"/><circle cx="319.4" cy="296.5" r="7.8" fill="#ffc199" opacity="0.46"/><circle cx="173.9" cy="117.7" r="8.7" fill="#c24405" opacity="0.47"/><circle cx="274.6" cy="163.3" r="9.7" fill="#ff7a29" opacity="0.31"/><circle cx="127.2" cy="350.8" r="6.2" fill="#ff7a29" opacity="0.40"/><circle cx="295.8" cy="245.1" r="4.9" fill="#ff7a29" opacity="0.38"/><circle cx="254.5" cy="213.3" r="9.2" fill="#ffe0cc" opacity="0.36"/><circle cx="356.7" cy="217.2" r="7.1" fill="#e85c10" opacity="0.45"/><circle cx="193.5" cy="318.6" r="10.5" fill="#fff0e6" opacity="0.42"/><circle cx="262.5" cy="330.0" r="7.1" fill="#ffc199" opacity="0.24"/><circle cx="124.4" cy="322.4" r="6.8" fill="#ffc199" opacity="0.41"/><circle cx="135.9" cy="200.5" r="8.6" fill="#e85c10" opacity="0.44"/><circle cx="292.0" cy="211.7" r="6.8" fill="#fff0e6" opacity="0.41"/><circle cx="398.9" cy="194.2" r="4.0" fill="#ffe0cc" opacity="0.28"/><circle cx="201.8" cy="383.7" r="10.2" fill="#ffe0cc" opacity="0.43"/><circle cx="382.1" cy="202.0" r="5.9" fill="#c24405" opacity="0.28"/><circle cx="330.2" cy="314.9" r="5.4" fill="#ff7a29" opacity="0.43"/><circle cx="170.6" cy="150.7" r="8.5" fill="#c24405" opacity="0.25"/><circle cx="334.4" cy="188.0" r="6.1" fill="#ffc199" opacity="0.21"/><circle cx="414.2" cy="254.9" r="3.7" fill="#ffc199" opacity="0.39"/><circle cx="405.3" cy="193.3" r="4.7" fill="#ffc199" opacity="0.24"/><circle cx="391.3" cy="328.0" r="5.8" fill="#ffe0cc" opacity="0.40"/><circle cx="129.9" cy="198.7" r="8.8" fill="#ff7a29" opacity="0.43"/><circle cx="99.3" cy="222.2" r="5.7" fill="#ff9f5e" opacity="0.33"/><circle cx="186.7" cy="145.1" r="9.4" fill="#c24405" opacity="0.29"/><circle cx="377.3" cy="210.6" r="3.7" fill="#ff7a29" opacity="0.45"/><circle cx="362.5" cy="278.7" r="3.7" fill="#ff7a29" opacity="0.22"/><circle cx="251.5" cy="94.7" r="8.5" fill="#ffe0cc" opacity="0.34"/><circle cx="198.5" cy="149.9" r="5.9" fill="#c24405" opacity="0.24"/><circle cx="173.6" cy="166.5" r="5.9" fill="#c24405" opacity="0.17"/><circle cx="278.4" cy="181.0" r="5.5" fill="#ffc199" opacity="0.25"/><circle cx="228.4" cy="314.6" r="5.1" fill="#ff9f5e" opacity="0.25"/><circle cx="261.9" cy="198.0" r="4.8" fill="#ff7a29" opacity="0.40"/><circle cx="209.5" cy="214.5" r="5.2" fill="#ff7a29" opacity="0.33"/><circle cx="137.4" cy="328.0" r="6.6" fill="#e85c10" opacity="0.49"/><circle cx="249.0" cy="327.2" r="4.0" fill="#fff0e6" opacity="0.36"/><circle cx="139.3" cy="355.7" r="4.1" fill="#e85c10" opacity="0.48"/><circle cx="290.1" cy="176.9" r="6.8" fill="#ffc199" opacity="0.29"/><circle cx="113.6" cy="197.0" r="6.8" fill="#e85c10" opacity="0.18"/><circle cx="268.6" cy="203.2" r="3.9" fill="#ffe0cc" opacity="0.44"/><circle cx="384.0" cy="300.0" r="7.0" fill="#ffc199" opacity="0.38"/><circle cx="188.9" cy="319.2" r="8.0" fill="#ff9f5e" opacity="0.38"/><circle cx="154.1" cy="161.6" r="6.1" fill="#ff9f5e" opacity="0.24"/><circle cx="266.5" cy="183.5" r="6.4" fill="#ffe0cc" opacity="0.28"/><circle cx="397.4" cy="282.6" r="6.0" fill="#ff7a29" opacity="0.50"/><circle cx="260.9" cy="115.7" r="7.8" fill="#ff7a29" opacity="0.44"/><circle cx="148.0" cy="310.4" r="9.5" fill="#ffc199" opacity="0.42"/><circle cx="134.7" cy="334.5" r="7.4" fill="#ff9f5e" opacity="0.33"/><circle cx="136.1" cy="210.4" r="6.1" fill="#ff7a29" opacity="0.47"/><circle cx="118.6" cy="178.4" r="7.6" fill="#c24405" opacity="0.44"/><circle cx="205.6" cy="140.0" r="8.3" fill="#e85c10" opacity="0.24"/><circle cx="223.3" cy="370.0" r="4.3" fill="#e85c10" opacity="0.18"/><circle cx="290.7" cy="304.0" r="6.2" fill="#c24405" opacity="0.29"/><circle cx="351.8" cy="250.1" r="9.9" fill="#ff9f5e" opacity="0.36"/><circle cx="223.2" cy="283.0" r="4.8" fill="#ffc199" opacity="0.31"/><circle cx="179.7" cy="165.5" r="3.8" fill="#ff7a29" opacity="0.22"/><circle cx="358.2" cy="364.2" r="8.1" fill="#ff7a29" opacity="0.20"/><circle cx="238.0" cy="378.1" r="4.1" fill="#ffe0cc" opacity="0.19"/><circle cx="123.5" cy="219.7" r="4.8" fill="#ff9f5e" opacity="0.38"/><circle cx="294.8" cy="261.1" r="9.7" fill="#ff9f5e" opacity="0.34"/><circle cx="217.5" cy="118.7" r="4.0" fill="#c24405" opacity="0.50"/><circle cx="282.5" cy="398.2" r="6.0" fill="#fff0e6" opacity="0.41"/><circle cx="342.1" cy="124.7" r="7.5" fill="#ff7a29" opacity="0.44"/><circle cx="145.8" cy="156.8" r="7.0" fill="#ff9f5e" opacity="0.20"/><circle cx="284.9" cy="271.3" r="4.0" fill="#e85c10" opacity="0.28"/><circle cx="181.7" cy="269.6" r="9.1" fill="#ff9f5e" opacity="0.23"/><circle cx="220.9" cy="358.2" r="8.7" fill="#c24405" opacity="0.20"/><circle cx="163.6" cy="293.4" r="10.5" fill="#ffc199" opacity="0.34"/><circle cx="289.0" cy="337.5" r="8.5" fill="#ffe0cc" opacity="0.36"/><circle cx="360.1" cy="156.0" r="8.1" fill="#ff7a29" opacity="0.20"/><circle cx="325.2" cy="110.7" r="7.2" fill="#fff0e6" opacity="0.50"/><circle cx="222.8" cy="289.4" r="4.4" fill="#ffe0cc" opacity="0.42"/><circle cx="262.2" cy="248.0" r="4.1" fill="#ffe0cc" opacity="0.42"/><circle cx="352.5" cy="347.5" r="4.4" fill="#ffc199" opacity="0.24"/><circle cx="217.5" cy="100.4" r="5.6" fill="#ffe0cc" opacity="0.47"/><circle cx="183.5" cy="292.5" r="5.3" fill="#fff0e6" opacity="0.25"/><circle cx="332.4" cy="333.7" r="4.3" fill="#c24405" opacity="0.24"/><circle cx="342.2" cy="393.0" r="6.6" fill="#ffc199" opacity="0.27"/><circle cx="187.3" cy="327.0" r="9.5" fill="#ff7a29" opacity="0.20"/><circle cx="309.7" cy="333.4" r="5.7" fill="#e85c10" opacity="0.46"/><circle cx="194.5" cy="245.6" r="10.4" fill="#ff9f5e" opacity="0.38"/><circle cx="152.6" cy="345.7" r="8.0" fill="#fff0e6" opacity="0.37"/><circle cx="348.0" cy="238.2" r="7.6" fill="#c24405" opacity="0.21"/><circle cx="206.1" cy="108.0" r="4.2" fill="#c24405" opacity="0.32"/><circle cx="405.5" cy="221.5" r="9.5" fill="#e85c10" opacity="0.36"/><circle cx="206.9" cy="217.4" r="8.9" fill="#ff9f5e" opacity="0.28"/><circle cx="350.1" cy="250.4" r="6.4" fill="#c24405" opacity="0.18"/><circle cx="117.3" cy="191.4" r="5.6" fill="#ff7a29" opacity="0.22"/><circle cx="222.4" cy="370.0" r="9.6" fill="#e85c10" opacity="0.43"/><circle cx="220.1" cy="200.4" r="6.6" fill="#ffc199" opacity="0.47"/><circle cx="261.7" cy="187.1" r="8.0" fill="#e85c10" opacity="0.35"/><circle cx="129.3" cy="196.3" r="4.0" fill="#ffc199" opacity="0.18"/><circle cx="386.7" cy="325.8" r="4.6" fill="#c24405" opacity="0.39"/><circle cx="149.2" cy="168.7" r="3.5" fill="#ffe0cc" opacity="0.32"/><circle cx="122.6" cy="265.8" r="7.3" fill="#ff7a29" opacity="0.34"/><circle cx="180.8" cy="168.5" r="6.8" fill="#fff0e6" opacity="0.39"/><circle cx="197.3" cy="272.2" r="6.0" fill="#ff7a29" opacity="0.16"/><circle cx="315.7" cy="227.8" r="8.3" fill="#ffc199" opacity="0.50"/><circle cx="315.5" cy="358.8" r="7.8" fill="#ffe0cc" opacity="0.49"/><circle cx="155.8" cy="289.1" r="6.6" fill="#e85c10" opacity="0.46"/><circle cx="252.2" cy="399.1" r="5.4" fill="#ffc199" opacity="0.22"/><circle cx="363.4" cy="340.1" r="8.0" fill="#c24405" opacity="0.33"/><circle cx="262.9" cy="169.9" r="7.1" fill="#e85c10" opacity="0.49"/><circle cx="209.2" cy="143.3" r="9.9" fill="#ffc199" opacity="0.40"/><circle cx="267.2" cy="110.0" r="9.9" fill="#c24405" opacity="0.34"/><circle cx="379.0" cy="272.8" r="10.3" fill="#ff7a29" opacity="0.29"/><circle cx="166.7" cy="218.8" r="7.0" fill="#ffe0cc" opacity="0.19"/><circle cx="295.9" cy="361.5" r="4.1" fill="#e85c10" opacity="0.42"/><circle cx="203.0" cy="347.7" r="8.6" fill="#ff7a29" opacity="0.28"/><circle cx="217.8" cy="144.8" r="5.1" fill="#fff0e6" opacity="0.44"/><circle cx="181.5" cy="141.0" r="6.5" fill="#c24405" opacity="0.32"/><circle cx="198.2" cy="283.1" r="4.6" fill="#ff9f5e" opacity="0.21"/><circle cx="270.9" cy="208.1" r="9.3" fill="#ffe0cc" opacity="0.16"/><circle cx="191.5" cy="325.2" r="7.6" fill="#ff7a29" opacity="0.32"/><circle cx="208.1" cy="156.6" r="6.9" fill="#ff7a29" opacity="0.18"/><circle cx="355.3" cy="246.5" r="5.4" fill="#c24405" opacity="0.45"/><circle cx="225.4" cy="208.7" r="8.2" fill="#ff9f5e" opacity="0.33"/><circle cx="291.2" cy="120.3" r="4.9" fill="#fff0e6" opacity="0.19"/><circle cx="298.3" cy="209.5" r="4.3" fill="#ff7a29" opacity="0.20"/><circle cx="203.4" cy="293.9" r="5.0" fill="#ff7a29" opacity="0.45"/><circle cx="125.3" cy="314.5" r="7.0" fill="#ffc199" opacity="0.44"/><circle cx="136.3" cy="293.9" r="5.1" fill="#fff0e6" opacity="0.41"/><circle cx="358.3" cy="288.7" r="6.4" fill="#c24405" opacity="0.40"/><circle cx="170.1" cy="249.9" r="4.9" fill="#ff7a29" opacity="0.19"/><circle cx="162.2" cy="362.5" r="4.6" fill="#ff9f5e" opacity="0.20"/><circle cx="331.1" cy="132.5" r="6.4" fill="#e85c10" opacity="0.18"/><circle cx="208.4" cy="262.8" r="5.9" fill="#e85c10" opacity="0.50"/><circle cx="269.3" cy="372.8" r="8.7" fill="#ffe0cc" opacity="0.23"/><circle cx="271.7" cy="101.5" r="3.7" fill="#c24405" opacity="0.21"/><circle cx="219.0" cy="252.6" r="5.6" fill="#e85c10" opacity="0.22"/><circle cx="208.3" cy="334.5" r="9.6" fill="#e85c10" opacity="0.38"/><circle cx="253.4" cy="373.5" r="3.8" fill="#ff7a29" opacity="0.22"/><circle cx="243.7" cy="151.7" r="8.1" fill="#fff0e6" opacity="0.40"/><circle cx="310.5" cy="288.5" r="7.7" fill="#ffe0cc" opacity="0.20"/><circle cx="146.5" cy="358.2" r="9.4" fill="#c24405" opacity="0.47"/><circle cx="358.1" cy="347.0" r="5.8" fill="#ffc199" opacity="0.45"/><circle cx="201.8" cy="288.2" r="7.2" fill="#ff9f5e" opacity="0.45"/><circle cx="131.9" cy="188.8" r="6.8" fill="#ff9f5e" opacity="0.48"/><circle cx="388.2" cy="289.1" r="4.4" fill="#ff7a29" opacity="0.40"/><circle cx="260.3" cy="278.8" r="9.6" fill="#ff7a29" opacity="0.31"/><circle cx="297.6" cy="217.5" r="8.5" fill="#ff9f5e" opacity="0.35"/><circle cx="169.4" cy="367.1" r="8.5" fill="#fff0e6" opacity="0.34"/><circle cx="205.5" cy="393.0" r="10.0" fill="#ff7a29" opacity="0.27"/><circle cx="400.3" cy="281.3" r="9.6" fill="#ffc199" opacity="0.43"/><circle cx="151.4" cy="193.2" r="8.7" fill="#fff0e6" opacity="0.29"/><circle cx="110.5" cy="208.1" r="8.0" fill="#ffe0cc" opacity="0.49"/><circle cx="156.4" cy="183.2" r="8.0" fill="#e85c10" opacity="0.40"/><circle cx="164.1" cy="208.3" r="8.4" fill="#ffe0cc" opacity="0.29"/><circle cx="381.9" cy="252.0" r="4.1" fill="#ffc199" opacity="0.33"/><circle cx="226.8" cy="234.4" r="6.6" fill="#ffe0cc" opacity="0.18"/><circle cx="321.8" cy="202.4" r="4.9" fill="#fff0e6" opacity="0.26"/><circle cx="363.9" cy="175.1" r="8.6" fill="#fff0e6" opacity="0.32"/><circle cx="282.8" cy="104.0" r="5.9" fill="#ff9f5e" opacity="0.43"/><circle cx="159.8" cy="242.0" r="8.3" fill="#ffc199" opacity="0.37"/><circle cx="144.0" cy="211.7" r="5.1" fill="#e85c10" opacity="0.45"/><circle cx="381.2" cy="293.6" r="9.0" fill="#e85c10" opacity="0.43"/><circle cx="153.7" cy="162.1" r="9.0" fill="#e85c10" opacity="0.20"/><circle cx="206.8" cy="168.9" r="5.9" fill="#ffc199" opacity="0.28"/><circle cx="327.0" cy="277.4" r="5.1" fill="#ffc199" opacity="0.22"/><circle cx="259.2" cy="189.5" r="10.0" fill="#c24405" opacity="0.25"/><circle cx="202.1" cy="133.2" r="10.0" fill="#ff9f5e" opacity="0.38"/><circle cx="250.7" cy="293.5" r="4.2" fill="#c24405" opacity="0.26"/><circle cx="182.9" cy="239.8" r="6.8" fill="#e85c10" opacity="0.45"/><circle cx="323.6" cy="202.4" r="5.9" fill="#e85c10" opacity="0.39"/><circle cx="292.6" cy="160.1" r="6.1" fill="#ffe0cc" opacity="0.25"/><circle cx="372.7" cy="359.7" r="6.1" fill="#e85c10" opacity="0.50"/><circle cx="277.7" cy="346.2" r="6.9" fill="#e85c10" opacity="0.35"/><circle cx="302.6" cy="314.8" r="4.8" fill="#ffe0cc" opacity="0.27"/><circle cx="156.6" cy="258.7" r="3.9" fill="#ffe0cc" opacity="0.31"/><circle cx="260.8" cy="113.9" r="8.6" fill="#ff7a29" opacity="0.35"/><circle cx="272.6" cy="182.8" r="6.0" fill="#c24405" opacity="0.26"/><circle cx="338.2" cy="272.9" r="7.6" fill="#fff0e6" opacity="0.45"/><circle cx="308.0" cy="218.3" r="6.3" fill="#ffc199" opacity="0.40"/><circle cx="403.7" cy="317.3" r="6.2" fill="#fff0e6" opacity="0.44"/><circle cx="323.3" cy="137.9" r="9.1" fill="#ffc199" opacity="0.26"/></g>
  <line x1="136" y1="256" x2="376" y2="256" stroke="#b23e04" stroke-width="18" stroke-linecap="round" opacity="0.72"/>
</svg>
